<?xml version="1.0" encoding="UTF-8" standalone="no"?>
<!DOCTYPE svg PUBLIC "-//W3C//DTD SVG 1.1//EN"
 "http://www.w3.org/Graphics/SVG/1.1/DTD/svg11.dtd">
<!-- Generated by graphviz version 7.1.0 (20230121.1956)
 -->
<!-- Title: Tree Pages: 1 -->
<svg width="1064pt" height="433pt"
 viewBox="0.00 0.00 1064.00 433.00" xmlns="http://www.w3.org/2000/svg" xmlns:xlink="http://www.w3.org/1999/xlink">
<g id="graph0" class="graph" transform="scale(1 1) rotate(0) translate(4 429)">
<title>Tree</title>
<polygon fill="white" stroke="none" points="-4,4 -4,-429 1060,-429 1060,4 -4,4"/>
<!-- 0 -->
<g id="node1" class="node">
<title>0</title>
<path fill="#ffffff" stroke="black" d="M614,-425C614,-425 419,-425 419,-425 413,-425 407,-419 407,-413 407,-413 407,-354 407,-354 407,-348 413,-342 419,-342 419,-342 614,-342 614,-342 620,-342 626,-348 626,-354 626,-354 626,-413 626,-413 626,-419 620,-425 614,-425"/>
<text text-anchor="middle" x="516.5" y="-409.8" font-family="Helvetica,sans-Serif" font-size="14.00">distance_nose_to_lip_long &lt;= 0.5</text>
<text text-anchor="middle" x="516.5" y="-394.8" font-family="Helvetica,sans-Serif" font-size="14.00">gini = 0.5</text>
<text text-anchor="middle" x="516.5" y="-379.8" font-family="Helvetica,sans-Serif" font-size="14.00">samples = 4000</text>
<text text-anchor="middle" x="516.5" y="-364.8" font-family="Helvetica,sans-Serif" font-size="14.00">value = [1999, 2001]</text>
<text text-anchor="middle" x="516.5" y="-349.8" font-family="Helvetica,sans-Serif" font-size="14.00">class = Male</text>
</g>
<!-- 1 -->
<g id="node2" class="node">
<title>1</title>
<path fill="#e89153" stroke="black" d="M460.5,-306C460.5,-306 352.5,-306 352.5,-306 346.5,-306 340.5,-300 340.5,-294 340.5,-294 340.5,-235 340.5,-235 340.5,-229 346.5,-223 352.5,-223 352.5,-223 460.5,-223 460.5,-223 466.5,-223 472.5,-229 472.5,-235 472.5,-235 472.5,-294 472.5,-294 472.5,-300 466.5,-306 460.5,-306"/>
<text text-anchor="middle" x="406.5" y="-290.8" font-family="Helvetica,sans-Serif" font-size="14.00">nose_wide &lt;= 0.5</text>
<text text-anchor="middle" x="406.5" y="-275.8" font-family="Helvetica,sans-Serif" font-size="14.00">gini = 0.203</text>
<text text-anchor="middle" x="406.5" y="-260.8" font-family="Helvetica,sans-Serif" font-size="14.00">samples = 1993</text>
<text text-anchor="middle" x="406.5" y="-245.8" font-family="Helvetica,sans-Serif" font-size="14.00">value = [1764, 229]</text>
<text text-anchor="middle" x="406.5" y="-230.8" font-family="Helvetica,sans-Serif" font-size="14.00">class = Female</text>
</g>
<!-- 0&#45;&gt;1 -->
<g id="edge1" class="edge">
<title>0&#45;&gt;1</title>
<path fill="none" stroke="black" d="M478.03,-341.58C469.77,-332.8 460.97,-323.44 452.47,-314.39"/>
<polygon fill="black" stroke="black" points="455.2,-312.19 445.8,-307.3 450.1,-316.99 455.2,-312.19"/>
<text text-anchor="middle" x="443.99" y="-327.49" font-family="Helvetica,sans-Serif" font-size="14.00">True</text>
</g>
<!-- 8 -->
<g id="node9" class="node">
<title>8</title>
<path fill="#53aae8" stroke="black" d="M709.5,-306C709.5,-306 601.5,-306 601.5,-306 595.5,-306 589.5,-300 589.5,-294 589.5,-294 589.5,-235 589.5,-235 589.5,-229 595.5,-223 601.5,-223 601.5,-223 709.5,-223 709.5,-223 715.5,-223 721.5,-229 721.5,-235 721.5,-235 721.5,-294 721.5,-294 721.5,-300 715.5,-306 709.5,-306"/>
<text text-anchor="middle" x="655.5" y="-290.8" font-family="Helvetica,sans-Serif" font-size="14.00">nose_wide &lt;= 0.5</text>
<text text-anchor="middle" x="655.5" y="-275.8" font-family="Helvetica,sans-Serif" font-size="14.00">gini = 0.207</text>
<text text-anchor="middle" x="655.5" y="-260.8" font-family="Helvetica,sans-Serif" font-size="14.00">samples = 2007</text>
<text text-anchor="middle" x="655.5" y="-245.8" font-family="Helvetica,sans-Serif" font-size="14.00">value = [235, 1772]</text>
<text text-anchor="middle" x="655.5" y="-230.8" font-family="Helvetica,sans-Serif" font-size="14.00">class = Male</text>
</g>
<!-- 0&#45;&gt;8 -->
<g id="edge8" class="edge">
<title>0&#45;&gt;8</title>
<path fill="none" stroke="black" d="M565.12,-341.58C575.86,-332.53 587.35,-322.87 598.4,-313.56"/>
<polygon fill="black" stroke="black" points="600.59,-316.29 605.99,-307.17 596.08,-310.94 600.59,-316.29"/>
<text text-anchor="middle" x="605.01" y="-327.41" font-family="Helvetica,sans-Serif" font-size="14.00">False</text>
</g>
<!-- 2 -->
<g id="node3" class="node">
<title>2</title>
<path fill="#e5833d" stroke="black" d="M279,-187C279,-187 110,-187 110,-187 104,-187 98,-181 98,-175 98,-175 98,-116 98,-116 98,-110 104,-104 110,-104 110,-104 279,-104 279,-104 285,-104 291,-110 291,-116 291,-116 291,-175 291,-175 291,-181 285,-187 279,-187"/>
<text text-anchor="middle" x="194.5" y="-171.8" font-family="Helvetica,sans-Serif" font-size="14.00">forehead_width_cm &lt;= 14.35</text>
<text text-anchor="middle" x="194.5" y="-156.8" font-family="Helvetica,sans-Serif" font-size="14.00">gini = 0.036</text>
<text text-anchor="middle" x="194.5" y="-141.8" font-family="Helvetica,sans-Serif" font-size="14.00">samples = 1585</text>
<text text-anchor="middle" x="194.5" y="-126.8" font-family="Helvetica,sans-Serif" font-size="14.00">value = [1556, 29]</text>
<text text-anchor="middle" x="194.5" y="-111.8" font-family="Helvetica,sans-Serif" font-size="14.00">class = Female</text>
</g>
<!-- 1&#45;&gt;2 -->
<g id="edge2" class="edge">
<title>1&#45;&gt;2</title>
<path fill="none" stroke="black" d="M340,-226.8C320.49,-216.03 298.89,-204.11 278.44,-192.82"/>
<polygon fill="black" stroke="black" points="280.28,-189.84 269.83,-188.07 276.89,-195.97 280.28,-189.84"/>
</g>
<!-- 5 -->
<g id="node6" class="node">
<title>5</title>
<path fill="#fefaf7" stroke="black" d="M457,-187C457,-187 356,-187 356,-187 350,-187 344,-181 344,-175 344,-175 344,-116 344,-116 344,-110 350,-104 356,-104 356,-104 457,-104 457,-104 463,-104 469,-110 469,-116 469,-116 469,-175 469,-175 469,-181 463,-187 457,-187"/>
<text text-anchor="middle" x="406.5" y="-171.8" font-family="Helvetica,sans-Serif" font-size="14.00">nose_long &lt;= 0.5</text>
<text text-anchor="middle" x="406.5" y="-156.8" font-family="Helvetica,sans-Serif" font-size="14.00">gini = 0.5</text>
<text text-anchor="middle" x="406.5" y="-141.8" font-family="Helvetica,sans-Serif" font-size="14.00">samples = 408</text>
<text text-anchor="middle" x="406.5" y="-126.8" font-family="Helvetica,sans-Serif" font-size="14.00">value = [208, 200]</text>
<text text-anchor="middle" x="406.5" y="-111.8" font-family="Helvetica,sans-Serif" font-size="14.00">class = Female</text>
</g>
<!-- 1&#45;&gt;5 -->
<g id="edge5" class="edge">
<title>1&#45;&gt;5</title>
<path fill="none" stroke="black" d="M406.5,-222.58C406.5,-214.79 406.5,-206.53 406.5,-198.45"/>
<polygon fill="black" stroke="black" points="410,-198.71 406.5,-188.71 403,-198.71 410,-198.71"/>
</g>
<!-- 3 -->
<g id="node4" class="node">
<title>3</title>
<path fill="#e5823b" stroke="black" d="M113,-68C113,-68 12,-68 12,-68 6,-68 0,-62 0,-56 0,-56 0,-12 0,-12 0,-6 6,0 12,0 12,0 113,0 113,0 119,0 125,-6 125,-12 125,-12 125,-56 125,-56 125,-62 119,-68 113,-68"/>
<text text-anchor="middle" x="62.5" y="-52.8" font-family="Helvetica,sans-Serif" font-size="14.00">gini = 0.021</text>
<text text-anchor="middle" x="62.5" y="-37.8" font-family="Helvetica,sans-Serif" font-size="14.00">samples = 1573</text>
<text text-anchor="middle" x="62.5" y="-22.8" font-family="Helvetica,sans-Serif" font-size="14.00">value = [1556, 17]</text>
<text text-anchor="middle" x="62.5" y="-7.8" font-family="Helvetica,sans-Serif" font-size="14.00">class = Female</text>
</g>
<!-- 2&#45;&gt;3 -->
<g id="edge3" class="edge">
<title>2&#45;&gt;3</title>
<path fill="none" stroke="black" d="M145.35,-103.73C134.24,-94.51 122.46,-84.74 111.36,-75.53"/>
<polygon fill="black" stroke="black" points="113.74,-72.96 103.81,-69.27 109.27,-78.34 113.74,-72.96"/>
</g>
<!-- 4 -->
<g id="node5" class="node">
<title>4</title>
<path fill="#399de5" stroke="black" d="M233.5,-68C233.5,-68 155.5,-68 155.5,-68 149.5,-68 143.5,-62 143.5,-56 143.5,-56 143.5,-12 143.5,-12 143.5,-6 149.5,0 155.5,0 155.5,0 233.5,0 233.5,0 239.5,0 245.5,-6 245.5,-12 245.5,-12 245.5,-56 245.5,-56 245.5,-62 239.5,-68 233.5,-68"/>
<text text-anchor="middle" x="194.5" y="-52.8" font-family="Helvetica,sans-Serif" font-size="14.00">gini = 0.0</text>
<text text-anchor="middle" x="194.5" y="-37.8" font-family="Helvetica,sans-Serif" font-size="14.00">samples = 12</text>
<text text-anchor="middle" x="194.5" y="-22.8" font-family="Helvetica,sans-Serif" font-size="14.00">value = [0, 12]</text>
<text text-anchor="middle" x="194.5" y="-7.8" font-family="Helvetica,sans-Serif" font-size="14.00">class = Male</text>
</g>
<!-- 2&#45;&gt;4 -->
<g id="edge4" class="edge">
<title>2&#45;&gt;4</title>
<path fill="none" stroke="black" d="M194.5,-103.73C194.5,-95.88 194.5,-87.63 194.5,-79.67"/>
<polygon fill="black" stroke="black" points="198,-79.81 194.5,-69.81 191,-79.81 198,-79.81"/>
</g>
<!-- 6 -->
<g id="node7" class="node">
<title>6</title>
<path fill="#e89153" stroke="black" d="M369,-68C369,-68 276,-68 276,-68 270,-68 264,-62 264,-56 264,-56 264,-12 264,-12 264,-6 270,0 276,0 276,0 369,0 369,0 375,0 381,-6 381,-12 381,-12 381,-56 381,-56 381,-62 375,-68 369,-68"/>
<text text-anchor="middle" x="322.5" y="-52.8" font-family="Helvetica,sans-Serif" font-size="14.00">gini = 0.202</text>
<text text-anchor="middle" x="322.5" y="-37.8" font-family="Helvetica,sans-Serif" font-size="14.00">samples = 210</text>
<text text-anchor="middle" x="322.5" y="-22.8" font-family="Helvetica,sans-Serif" font-size="14.00">value = [186, 24]</text>
<text text-anchor="middle" x="322.5" y="-7.8" font-family="Helvetica,sans-Serif" font-size="14.00">class = Female</text>
</g>
<!-- 5&#45;&gt;6 -->
<g id="edge6" class="edge">
<title>5&#45;&gt;6</title>
<path fill="none" stroke="black" d="M375.22,-103.73C368.57,-95.06 361.54,-85.9 354.86,-77.18"/>
<polygon fill="black" stroke="black" points="357.83,-75.3 348.97,-69.5 352.28,-79.57 357.83,-75.3"/>
</g>
<!-- 7 -->
<g id="node8" class="node">
<title>7</title>
<path fill="#52a9e8" stroke="black" d="M504,-68C504,-68 411,-68 411,-68 405,-68 399,-62 399,-56 399,-56 399,-12 399,-12 399,-6 405,0 411,0 411,0 504,0 504,0 510,0 516,-6 516,-12 516,-12 516,-56 516,-56 516,-62 510,-68 504,-68"/>
<text text-anchor="middle" x="457.5" y="-52.8" font-family="Helvetica,sans-Serif" font-size="14.00">gini = 0.198</text>
<text text-anchor="middle" x="457.5" y="-37.8" font-family="Helvetica,sans-Serif" font-size="14.00">samples = 198</text>
<text text-anchor="middle" x="457.5" y="-22.8" font-family="Helvetica,sans-Serif" font-size="14.00">value = [22, 176]</text>
<text text-anchor="middle" x="457.5" y="-7.8" font-family="Helvetica,sans-Serif" font-size="14.00">class = Male</text>
</g>
<!-- 5&#45;&gt;7 -->
<g id="edge7" class="edge">
<title>5&#45;&gt;7</title>
<path fill="none" stroke="black" d="M425.49,-103.73C429.31,-95.52 433.35,-86.86 437.21,-78.56"/>
<polygon fill="black" stroke="black" points="440.3,-80.21 441.35,-69.67 433.96,-77.26 440.3,-80.21"/>
</g>
<!-- 9 -->
<g id="node10" class="node">
<title>9</title>
<path fill="#f7fbfe" stroke="black" d="M706,-187C706,-187 605,-187 605,-187 599,-187 593,-181 593,-175 593,-175 593,-116 593,-116 593,-110 599,-104 605,-104 605,-104 706,-104 706,-104 712,-104 718,-110 718,-116 718,-116 718,-175 718,-175 718,-181 712,-187 706,-187"/>
<text text-anchor="middle" x="655.5" y="-171.8" font-family="Helvetica,sans-Serif" font-size="14.00">lips_thin &lt;= 0.5</text>
<text text-anchor="middle" x="655.5" y="-156.8" font-family="Helvetica,sans-Serif" font-size="14.00">gini = 0.5</text>
<text text-anchor="middle" x="655.5" y="-141.8" font-family="Helvetica,sans-Serif" font-size="14.00">samples = 439</text>
<text text-anchor="middle" x="655.5" y="-126.8" font-family="Helvetica,sans-Serif" font-size="14.00">value = [215, 224]</text>
<text text-anchor="middle" x="655.5" y="-111.8" font-family="Helvetica,sans-Serif" font-size="14.00">class = Male</text>
</g>
<!-- 8&#45;&gt;9 -->
<g id="edge9" class="edge">
<title>8&#45;&gt;9</title>
<path fill="none" stroke="black" d="M655.5,-222.58C655.5,-214.79 655.5,-206.53 655.5,-198.45"/>
<polygon fill="black" stroke="black" points="659,-198.71 655.5,-188.71 652,-198.71 659,-198.71"/>
</g>
<!-- 12 -->
<g id="node13" class="node">
<title>12</title>
<path fill="#3c9ee5" stroke="black" d="M913,-187C913,-187 812,-187 812,-187 806,-187 800,-181 800,-175 800,-175 800,-116 800,-116 800,-110 806,-104 812,-104 812,-104 913,-104 913,-104 919,-104 925,-110 925,-116 925,-116 925,-175 925,-175 925,-181 919,-187 913,-187"/>
<text text-anchor="middle" x="862.5" y="-171.8" font-family="Helvetica,sans-Serif" font-size="14.00">nose_long &lt;= 0.5</text>
<text text-anchor="middle" x="862.5" y="-156.8" font-family="Helvetica,sans-Serif" font-size="14.00">gini = 0.025</text>
<text text-anchor="middle" x="862.5" y="-141.8" font-family="Helvetica,sans-Serif" font-size="14.00">samples = 1568</text>
<text text-anchor="middle" x="862.5" y="-126.8" font-family="Helvetica,sans-Serif" font-size="14.00">value = [20, 1548]</text>
<text text-anchor="middle" x="862.5" y="-111.8" font-family="Helvetica,sans-Serif" font-size="14.00">class = Male</text>
</g>
<!-- 8&#45;&gt;12 -->
<g id="edge12" class="edge">
<title>8&#45;&gt;12</title>
<path fill="none" stroke="black" d="M721.85,-226C743.49,-213.77 767.62,-200.13 789.71,-187.64"/>
<polygon fill="black" stroke="black" points="791.39,-190.71 798.38,-182.74 787.95,-184.62 791.39,-190.71"/>
</g>
<!-- 10 -->
<g id="node11" class="node">
<title>10</title>
<path fill="#e9975b" stroke="black" d="M639,-68C639,-68 546,-68 546,-68 540,-68 534,-62 534,-56 534,-56 534,-12 534,-12 534,-6 540,0 546,0 546,0 639,0 639,0 645,0 651,-6 651,-12 651,-12 651,-56 651,-56 651,-62 645,-68 639,-68"/>
<text text-anchor="middle" x="592.5" y="-52.8" font-family="Helvetica,sans-Serif" font-size="14.00">gini = 0.25</text>
<text text-anchor="middle" x="592.5" y="-37.8" font-family="Helvetica,sans-Serif" font-size="14.00">samples = 219</text>
<text text-anchor="middle" x="592.5" y="-22.8" font-family="Helvetica,sans-Serif" font-size="14.00">value = [187, 32]</text>
<text text-anchor="middle" x="592.5" y="-7.8" font-family="Helvetica,sans-Serif" font-size="14.00">class = Female</text>
</g>
<!-- 9&#45;&gt;10 -->
<g id="edge10" class="edge">
<title>9&#45;&gt;10</title>
<path fill="none" stroke="black" d="M632.04,-103.73C627.21,-95.34 622.12,-86.47 617.24,-78.01"/>
<polygon fill="black" stroke="black" points="620.43,-76.53 612.41,-69.61 614.37,-80.02 620.43,-76.53"/>
</g>
<!-- 11 -->
<g id="node12" class="node">
<title>11</title>
<path fill="#56abe9" stroke="black" d="M774,-68C774,-68 681,-68 681,-68 675,-68 669,-62 669,-56 669,-56 669,-12 669,-12 669,-6 675,0 681,0 681,0 774,0 774,0 780,0 786,-6 786,-12 786,-12 786,-56 786,-56 786,-62 780,-68 774,-68"/>
<text text-anchor="middle" x="727.5" y="-52.8" font-family="Helvetica,sans-Serif" font-size="14.00">gini = 0.222</text>
<text text-anchor="middle" x="727.5" y="-37.8" font-family="Helvetica,sans-Serif" font-size="14.00">samples = 220</text>
<text text-anchor="middle" x="727.5" y="-22.8" font-family="Helvetica,sans-Serif" font-size="14.00">value = [28, 192]</text>
<text text-anchor="middle" x="727.5" y="-7.8" font-family="Helvetica,sans-Serif" font-size="14.00">class = Male</text>
</g>
<!-- 9&#45;&gt;11 -->
<g id="edge11" class="edge">
<title>9&#45;&gt;11</title>
<path fill="none" stroke="black" d="M682.31,-103.73C687.89,-95.24 693.78,-86.28 699.4,-77.73"/>
<polygon fill="black" stroke="black" points="702.2,-79.84 704.77,-69.56 696.35,-76 702.2,-79.84"/>
</g>
<!-- 13 -->
<g id="node14" class="node">
<title>13</title>
<path fill="#4ea7e8" stroke="black" d="M909,-68C909,-68 816,-68 816,-68 810,-68 804,-62 804,-56 804,-56 804,-12 804,-12 804,-6 810,0 816,0 816,0 909,0 909,0 915,0 921,-6 921,-12 921,-12 921,-56 921,-56 921,-62 915,-68 909,-68"/>
<text text-anchor="middle" x="862.5" y="-52.8" font-family="Helvetica,sans-Serif" font-size="14.00">gini = 0.172</text>
<text text-anchor="middle" x="862.5" y="-37.8" font-family="Helvetica,sans-Serif" font-size="14.00">samples = 200</text>
<text text-anchor="middle" x="862.5" y="-22.8" font-family="Helvetica,sans-Serif" font-size="14.00">value = [19, 181]</text>
<text text-anchor="middle" x="862.5" y="-7.8" font-family="Helvetica,sans-Serif" font-size="14.00">class = Male</text>
</g>
<!-- 12&#45;&gt;13 -->
<g id="edge13" class="edge">
<title>12&#45;&gt;13</title>
<path fill="none" stroke="black" d="M862.5,-103.73C862.5,-95.88 862.5,-87.63 862.5,-79.67"/>
<polygon fill="black" stroke="black" points="866,-79.81 862.5,-69.81 859,-79.81 866,-79.81"/>
</g>
<!-- 14 -->
<g id="node15" class="node">
<title>14</title>
<path fill="#399de5" stroke="black" d="M1044,-68C1044,-68 951,-68 951,-68 945,-68 939,-62 939,-56 939,-56 939,-12 939,-12 939,-6 945,0 951,0 951,0 1044,0 1044,0 1050,0 1056,-6 1056,-12 1056,-12 1056,-56 1056,-56 1056,-62 1050,-68 1044,-68"/>
<text text-anchor="middle" x="997.5" y="-52.8" font-family="Helvetica,sans-Serif" font-size="14.00">gini = 0.001</text>
<text text-anchor="middle" x="997.5" y="-37.8" font-family="Helvetica,sans-Serif" font-size="14.00">samples = 1368</text>
<text text-anchor="middle" x="997.5" y="-22.8" font-family="Helvetica,sans-Serif" font-size="14.00">value = [1, 1367]</text>
<text text-anchor="middle" x="997.5" y="-7.8" font-family="Helvetica,sans-Serif" font-size="14.00">class = Male</text>
</g>
<!-- 12&#45;&gt;14 -->
<g id="edge14" class="edge">
<title>12&#45;&gt;14</title>
<path fill="none" stroke="black" d="M912.77,-103.73C924.13,-94.51 936.18,-84.74 947.53,-75.53"/>
<polygon fill="black" stroke="black" points="949.71,-78.27 955.27,-69.25 945.3,-72.83 949.71,-78.27"/>
</g>
</g>
</svg>
